<svg xmlns="http://www.w3.org/2000/svg" width="68.888" height="68.888" viewBox="0 0 68.888 68.888"><path d="M68.888,34.444A34.444,34.444,0,1,0,29.062,68.469V44.4H20.316V34.444h8.746V26.855c0-8.632,5.142-13.4,13.01-13.4a52.988,52.988,0,0,1,7.71.673V22.6H45.439c-4.279,0-5.613,2.655-5.613,5.382v6.458h9.553L47.851,44.4H39.826V68.469A34.453,34.453,0,0,0,68.888,34.444Z" fill="#1877f2"/><path d="M329.535,230.946l1.527-9.956h-9.553v-6.458c0-2.724,1.335-5.382,5.613-5.382h4.343v-8.476a52.964,52.964,0,0,0-7.71-.673c-7.868,0-13.01,4.768-13.01,13.4v7.588H302v9.956h8.746v24.069a34.821,34.821,0,0,0,10.764,0V230.946Z" transform="translate(-281.684 -186.545)" fill="#fff"/></svg>