<?xml version="1.0" encoding="utf-8"?><!--Generator: Adobe Illustrator 28.0.0, SVG Export Plug-In . SVG Version: 6.00 Build 0)--><svg version="1.1" id="レイヤー_1" xmlns="http://www.w3.org/2000/svg" xmlns:xlink="http://www.w3.org/1999/xlink" x="0px" y="0px" width="216px" height="72.3px" viewBox="0 0 216 72.3" style="enable-background:new 0 0 216 72.3" xml:space="preserve"><style type="text/css">.st0{fill:#231815;}
	.st1{fill:#182862;}
	.st2{fill:#103A83;}
	.st3{fill:url(#SVGID_1_);}
	.st4{fill:url(#SVGID_00000124141180036844673510000009417355733143088546_);}
	.st5{fill:url(#SVGID_00000026136694529905871250000014855877325730273973_);}
	.st6{fill:url(#SVGID_00000015352429496158773830000014554035795206034597_);}
	.st7{fill:url(#SVGID_00000056415985850405920370000005256219894781732527_);}
	.st8{fill:url(#SVGID_00000093863058583198706980000002804201689729850497_);}
	.st9{fill:url(#SVGID_00000080894202316988321580000003072578854245761953_);}
	.st10{fill:url(#SVGID_00000091015883514552468810000007581204744230979719_);}
	.st11{fill:url(#SVGID_00000120527778290031375910000004191806568123480473_);}
	.st12{fill:url(#SVGID_00000038387395143151031450000006342139284251539841_);}
	.st13{fill:url(#SVGID_00000157285099126768830240000006818392883276756918_);}
	.st14{fill:url(#SVGID_00000150096692734547592300000013837126207056573837_);}
	.st15{fill:url(#SVGID_00000169546162153070433960000007313364646293203371_);}
	.st16{fill:url(#SVGID_00000093156976471255464240000000231597229211295872_);}
	.st17{fill:url(#SVGID_00000119116769737965855970000003957811620823502473_);}
	.st18{fill:url(#SVGID_00000027566208450790637120000010649854874697983381_);}
	.st19{fill:url(#SVGID_00000170956987475368422610000014729759464200386974_);}
	.st20{fill:url(#SVGID_00000156557083222497554530000001910755809464704941_);}
	.st21{fill:url(#SVGID_00000075864798684277633600000008675280652203729307_);}
	.st22{fill:url(#SVGID_00000093871170076226576580000016517341320887453836_);}
	.st23{fill:url(#SVGID_00000012466233692102501000000005840081610308622492_);}
	.st24{fill:url(#SVGID_00000119801915035517526190000014961171299874375567_);}
	.st25{fill:url(#SVGID_00000174592691945869876910000003117737877378412170_);}
	.st26{fill:url(#SVGID_00000092452043787395371120000008353611298413973632_);}
	.st27{fill:url(#SVGID_00000068654054721213683940000000969236744132760990_);}
	.st28{fill:#FCCF00;}
	.st29{fill:#D0AB00;}
	.st30{fill:url(#SVGID_00000181052275627274205160000015670665979666322111_);}
	.st31{fill:url(#SVGID_00000102536416350203445410000004369562666155426472_);}
	.st32{fill:url(#SVGID_00000004525194916519312780000010772878650024175498_);}
	.st33{fill:url(#SVGID_00000058548872024061391910000004543119571468479160_);}
	.st34{fill:url(#SVGID_00000003089274761957793360000015431142401255302329_);}
	.st35{fill:url(#SVGID_00000072260712153963185540000003010792700122504107_);}
	.st36{fill:url(#SVGID_00000154396781575148507810000017914000885717894566_);}
	.st37{fill:url(#SVGID_00000144305223145525967260000011874387504805407909_);}
	.st38{fill:url(#SVGID_00000056393469332049758680000012765670695740718490_);}
	.st39{fill:url(#SVGID_00000170991856989556925710000004932491367721494712_);}
	.st40{fill:url(#SVGID_00000173870091107757458630000009267082899732602790_);}
	.st41{fill:url(#SVGID_00000046301772665824475020000014043086340419741114_);}
	.st42{fill:url(#SVGID_00000147203935658424812100000004044326270709055921_);}
	.st43{fill:url(#SVGID_00000049192375630696171060000017773684147062173364_);}
	.st44{fill:url(#SVGID_00000181065928179734877620000001388459409790772392_);}
	.st45{fill:url(#SVGID_00000142896883621502536450000003261309927327973005_);}
	.st46{fill:#324E9E;}</style><g><g><g><path class="st0" d="M190.9,61.4H190V64h-0.7v-2.7h-0.9v-0.6h2.5V61.4z M194.7,64h-0.6v-2.7h0l-0.9,2.7h-0.4l-0.9-2.7h0V64h-0.6
				v-3.3h1l0.7,2l0.7-2h1V64z"/></g></g><path class="st1" d="M199.6,34.1l1.5,0.1l9.6-18l-16.5-0.8l0.8-3.8l-23.9,1.5l0,1.1l-1.4-0.1l0.1-0.9l-23.4-5.1l0.2,4.9l-6.5-0.3
		l0.5-3.7L68.4,6l1.3,6.3l-17.8,0.9L52,9.7L25.9,9.6l1.4,4.9L2.6,15.7L10,36.1l0.3,0L14.8,47l0.9,4.1c-0.4,0-0.7,0.1-1.1,0.1L7,51.7
		l7.4,17.8l4-0.3c9.1-0.8,17.5-3.6,23.7-7.9l2.1-1.5l3.3,1.2c4.7,1.6,11.4,2.5,18.2,2.5c2.2,0,4.3-0.1,6.5-0.3l4.3-0.4l2.3-17.3
		l-6.8,0.6c-0.2,0-0.5,0-0.7,0.1l0.1-5.8l0.9-0.1L76,28.4l7.8-0.1c-2.9,4.2-3.9,9.4-2.1,14.2c1.5,4,4.8,7.1,8.9,8.6
		c1.9,0.7,3.9,1,5.9,1c1.7,0,3.5-0.3,5.2-0.8l4.5,10.7h3.6c7.2,0,12.6-1.1,16.5-3.2c4-2.3,6.3-5.8,6.5-10.1c0.1-1.4,0.2-3.4,0.3-5.9
		c0,0,0-0.1,0-0.1l0.3,6.1l1,0.1l3.3,15.4l4,0.4c6,0.5,11.4,0.8,16.3,0.8c8.6,0,15.5-0.8,21.1-2.4c7.3-2.1,11.3-5.5,13.5-9.1l8,0.7
		l6.1-19l-7.6-0.7L199.6,34.1z M152.2,14.9l11.5,2.5l-0.3,1.9l13.1,0.7l0-1.7l11.7-0.7l-0.6,3l14.3,0.7l-3.9,7.3l-12-1l-0.3,1.3
		l9.7,0.8l-3.4,9.3L144,34.5l-0.5-9.6l9.1,0.8l-0.1-1.3l-11.7-1l-1-5.3l12.5,0.6L152.2,14.9z M72.6,51.6l-0.8,6.2
		c-8.8,0.8-17.6-0.3-22.4-2l-0.3-3.2l-10.4,0.9l0.3,3.3c-4.5,3.1-11.6,6.1-21.1,6.9l-3-7.1c4.2-0.3,10.7-1.3,16-2.4l-9,0.8
		l-2.9-14.3l-0.9,0.2l-1.7-4l8-0.9l-0.1-1.2l-5.8,0.5l-0.7-2.6l6.3-0.5L24.1,31l-6.9,0.6L16.7,30l-3,0.3l-3.4-9.6l24.2-1.2l-1.3-4.5
		l13.2,0.1L46.2,19l24.4-1.2l-0.9,7.6l-2.4,0.2l-0.1,0.9l-6.7,0.6l0.1,1.2l8.1-0.7l-0.5,2.7l-7.4,0.6l0.2,1.8l2.1-0.2l-0.1-0.9
		l6.3-0.6l-1.2,4.1L43,37.5l-0.3-4l6-0.5l0.1,0.9l2.4-0.2L51,31.8l-8.4,0.7l-0.2-2.1c-0.5,0.1-0.9,0.2-1.4,0.3l-0.1-1.1l-6.9,0.6
		l0.1,1.1l6.3-0.5l0.2,2.6l-6.3,0.5l0.1,0.9l7-0.8l0.3,2.9l-20.1,3.5l44.5-3.9l-0.3,14.7l-8.4,0.7C62.8,52,68.9,51.9,72.6,51.6z
		 M86.8,40.5C84.8,35.3,88,29.3,94,27c6-2.3,12.4,0.1,14.4,5.3c2,5.2-1.2,11.3-7.2,13.6C95.2,48.1,88.8,45.7,86.8,40.5z M109.9,56.6
		l-4.1-9.8c0,0,8.3,0,10.1,0c1.2,0,1.7-0.8,1.7-1.5c0-4.9,0-17.2,0-22.9l-40.1,0.5l-2.3-11.2l59.3,2.4l-1.2,8l-4.5,0.1
		c-0.3,6.5-1.1,21.3-1.3,26.3C127.3,52.5,123.4,56.6,109.9,56.6z M134,27.6l2,0l0.2,1l2,0.2l0,0.9l-4.3-0.4
		C134,28.6,134,28.1,134,27.6z M199.6,40.6l-2.7,8.3l-7.5-0.7c-2.4,9.3-16.9,13.7-47,11l-1.8-8.5c6.2,0.5,11.8,0.9,16.8,1.1
		c-1-0.9-2.2-1.9-3.4-2.7c-2.9,0.3-5.8,0.3-8.4,0.1l0.4-4.7l-7.1-0.6l-0.5-8.8L199.6,40.6z"/><path class="st2" d="M140.8,9L68.4,6L73,28.4l10.7-0.1c-0.4,0.6-0.8,1.2-1.1,1.8c-2.1,3.9-2.4,8.4-0.9,12.4c1.5,4,4.8,7.1,8.9,8.6
		c1.9,0.7,3.9,1,5.9,1c1.7,0,3.5-0.3,5.2-0.8l4.5,10.7h3.6c7.2,0,12.6-1.1,16.5-3.2c4-2.3,6.3-5.8,6.5-10.1c0.1-1.4,0.2-3.4,0.3-5.9
		c0.3-5.7,0.6-11.1,0.8-15.3l4-0.1L140.8,9z"/><linearGradient id="SVGID_1_" gradientUnits="userSpaceOnUse" x1="69.766" y1="4.8041" x2="73.0308" y2="20.6619"><stop offset="0" style="stop-color:#182862"/><stop offset="1" style="stop-color:#0068B3"/></linearGradient><polyline class="st3" points="71,3.3 68.4,6 73,28.4 75.7,25.8 71,3.3 	"/><linearGradient id="SVGID_00000161620785861952386170000004868971145846030229_" gradientUnits="userSpaceOnUse" x1="83.4349" y1="26.8508" x2="54.3623" y2="28.0946"><stop offset="0" style="stop-color:#182862"/><stop offset="1" style="stop-color:#0068B3"/></linearGradient><polyline style="fill:url(#SVGID_00000161620785861952386170000004868971145846030229_)" points="86.4,25.6 83.7,28.3 73,28.4 
		75.7,25.8 86.4,25.6 	"/><linearGradient id="SVGID_00000063612618919515510470000016350927342426823098_" gradientUnits="userSpaceOnUse" x1="107.0204" y1="59.1939" x2="99.8688" y2="42.7142"><stop offset="0" style="stop-color:#182862"/><stop offset="1" style="stop-color:#0068B3"/></linearGradient><polyline style="fill:url(#SVGID_00000063612618919515510470000016350927342426823098_)" points="104.4,48.7 101.8,51.4 106.3,62 
		108.9,59.4 104.4,48.7 	"/><linearGradient id="SVGID_00000055670065492594372480000010530920791643728013_" gradientUnits="userSpaceOnUse" x1="81.6287" y1="31.8977" x2="107.9029" y2="62.3695"><stop offset="0" style="stop-color:#182862"/><stop offset="1" style="stop-color:#0068B3"/></linearGradient><path style="fill:url(#SVGID_00000055670065492594372480000010530920791643728013_)" d="M104.4,48.7c-1.7,0.5-3.5,0.8-5.2,0.8
		c-2,0-4-0.3-5.9-1c-4.2-1.5-7.4-4.7-8.9-8.6c-1.5-4-1.2-8.5,0.9-12.4c0.3-0.6,0.7-1.2,1.1-1.8l-2.6,2.6c-0.4,0.6-0.8,1.2-1.1,1.8
		c-2.1,3.9-2.4,8.4-0.9,12.4c1.5,4,4.8,7.1,8.9,8.6c1.9,0.7,3.9,1,5.9,1c1.7,0,3.5-0.3,5.2-0.8L104.4,48.7z"/><g><linearGradient id="SVGID_00000012460333194319876360000003849315446975109777_" gradientUnits="userSpaceOnUse" x1="98.4474" y1="56.9112" x2="136.3817" y2="57.5331"><stop offset="0" style="stop-color:#182862"/><stop offset="1" style="stop-color:#0068B3"/></linearGradient><path style="fill:url(#SVGID_00000012460333194319876360000003849315446975109777_)" d="M129,56.2c-3.8,2.2-9.2,3.2-16.5,3.2
			h-3.6l-2.6,2.6h3.6c11.2,0,17.8-2,23.4-9.6C132.2,53.9,130.8,55.2,129,56.2z"/></g><linearGradient id="SVGID_00000121979040396993661260000012660389793520209585_" gradientUnits="userSpaceOnUse" x1="26.991" y1="7.5635" x2="29.3813" y2="15.4924"><stop offset="0" style="stop-color:#182862"/><stop offset="1" style="stop-color:#0068B3"/></linearGradient><polygon style="fill:url(#SVGID_00000121979040396993661260000012660389793520209585_)" points="28.6,6.9 25.9,9.6 27.3,14.4 
		29.9,11.8 	"/><linearGradient id="SVGID_00000011002994809001205510000015453497035009827234_" gradientUnits="userSpaceOnUse" x1="3.7031" y1="13.8424" x2="11.1656" y2="34.2088"><stop offset="0" style="stop-color:#182862"/><stop offset="1" style="stop-color:#0068B3"/></linearGradient><polygon style="fill:url(#SVGID_00000011002994809001205510000015453497035009827234_)" points="5.3,13 2.6,15.7 10,36.1 
		12.7,33.5 	"/><linearGradient id="SVGID_00000030457208396339941150000000536470433406993073_" gradientUnits="userSpaceOnUse" x1="12.774" y1="34.7604" x2="17.0494" y2="34.7215"><stop offset="0" style="stop-color:#182862"/><stop offset="1" style="stop-color:#0068B3"/></linearGradient><polygon style="fill:url(#SVGID_00000030457208396339941150000000536470433406993073_)" points="12.7,33.5 13,33.4 10.3,36.1 
		10,36.1 	"/><linearGradient id="SVGID_00000145045964306508625740000003556408810954103194_" gradientUnits="userSpaceOnUse" x1="16.1099" y1="46.4926" x2="7.4037" y2="24.3384"><stop offset="0" style="stop-color:#182862"/><stop offset="1" style="stop-color:#0068B3"/></linearGradient><polygon style="fill:url(#SVGID_00000145045964306508625740000003556408810954103194_)" points="10.3,36.1 14.8,47 15.7,51.1 
		18.3,48.4 17.5,44.4 13,33.4 	"/><linearGradient id="SVGID_00000128460542968171426020000002552882440268578235_" gradientUnits="userSpaceOnUse" x1="15.5029" y1="67.5118" x2="4.7756" y2="41.7041"><stop offset="0" style="stop-color:#182862"/><stop offset="1" style="stop-color:#0068B3"/></linearGradient><polygon style="fill:url(#SVGID_00000128460542968171426020000002552882440268578235_)" points="9.7,49.1 7,51.7 14.4,69.5 
		17.1,66.9 	"/><linearGradient id="SVGID_00000094620544109851619290000012314426565451078318_" gradientUnits="userSpaceOnUse" x1="45.4223" y1="60.6943" x2="0.1809" y2="70.3333"><stop offset="0" style="stop-color:#182862"/><stop offset="1" style="stop-color:#0068B3"/></linearGradient><path style="fill:url(#SVGID_00000094620544109851619290000012314426565451078318_)" d="M17.1,66.9l4-0.3
		c9.1-0.8,17.5-3.6,23.7-7.9l2.1-1.5l-2.6,2.6l-2.1,1.5c-6.2,4.3-14.6,7.1-23.7,7.9l-4,0.3L17.1,66.9z"/><linearGradient id="SVGID_00000094600674516632360710000002306803099524675974_" gradientUnits="userSpaceOnUse" x1="74.9605" y1="39.0971" x2="48.1809" y2="37.8534"><stop offset="0" style="stop-color:#182862"/><stop offset="1" style="stop-color:#0068B3"/></linearGradient><polygon style="fill:url(#SVGID_00000094600674516632360710000002306803099524675974_)" points="75.1,37.7 72.4,40.3 71.6,40.4 
		74.2,37.7 	"/><linearGradient id="SVGID_00000169537973365251582550000009938846156342145460_" gradientUnits="userSpaceOnUse" x1="75.7605" y1="61.0712" x2="-39.5972" y2="56.8735"><stop offset="0" style="stop-color:#182862"/><stop offset="1" style="stop-color:#0068B3"/></linearGradient><path style="fill:url(#SVGID_00000169537973365251582550000009938846156342145460_)" d="M46.9,57.2l3.3,1.2
		c4.7,1.6,11.4,2.5,18.2,2.5c2.2,0,4.3-0.1,6.5-0.3l4.3-0.4l-2.6,2.6l-4.3,0.4c-2.1,0.2-4.3,0.3-6.5,0.3c-6.8,0-13.5-0.9-18.2-2.5
		l-3.3-1.2L46.9,57.2z"/><linearGradient id="SVGID_00000142172554641391477360000005897885548004967835_" gradientUnits="userSpaceOnUse" x1="147.6918" y1="5.8221" x2="148.508" y2="19.5811"><stop offset="0" style="stop-color:#182862"/><stop offset="1" style="stop-color:#0068B3"/></linearGradient><polygon style="fill:url(#SVGID_00000142172554641391477360000005897885548004967835_)" points="149.1,5.4 146.5,8.1 146.7,13 
		149.3,10.3 	"/><linearGradient id="SVGID_00000159458364618203362580000003718185063206177463_" gradientUnits="userSpaceOnUse" x1="172.2883" y1="10.7484" x2="172.8713" y2="18.2111"><stop offset="0" style="stop-color:#182862"/><stop offset="1" style="stop-color:#0068B3"/></linearGradient><polygon style="fill:url(#SVGID_00000159458364618203362580000003718185063206177463_)" points="173.7,10.5 171.1,13.1 
		171.1,14.2 173.7,11.6 	"/><linearGradient id="SVGID_00000161605360128735056330000017574006647035249800_" gradientUnits="userSpaceOnUse" x1="203.5457" y1="32.9721" x2="188.3878" y2="31.6312"><stop offset="0" style="stop-color:#182862"/><stop offset="1" style="stop-color:#0068B3"/></linearGradient><polygon style="fill:url(#SVGID_00000161605360128735056330000017574006647035249800_)" points="203.8,31.6 201.1,34.2 
		199.6,34.1 202.3,31.4 	"/><linearGradient id="SVGID_00000096018898025982828020000003316408916711434665_" gradientUnits="userSpaceOnUse" x1="200.0422" y1="53.1599" x2="183.718" y2="52.5769"><stop offset="0" style="stop-color:#182862"/><stop offset="1" style="stop-color:#0068B3"/></linearGradient><polygon style="fill:url(#SVGID_00000096018898025982828020000003316408916711434665_)" points="203.4,52.1 200.8,54.8 
		192.8,54.1 195.4,51.4 	"/><linearGradient id="SVGID_00000054252149231140358940000015529232381144309134_" gradientUnits="userSpaceOnUse" x1="136.8264" y1="47.8001" x2="114.9513" y2="44.6345"><stop offset="0" style="stop-color:#182862"/><stop offset="1" style="stop-color:#0068B3"/></linearGradient><polygon style="fill:url(#SVGID_00000054252149231140358940000015529232381144309134_)" points="136.2,46.2 133.6,48.9 134.5,49 
		137.2,46.3 	"/><linearGradient id="SVGID_00000065754961241080824520000004514004865102615684_" gradientUnits="userSpaceOnUse" x1="135.0038" y1="46.3356" x2="132.0888" y2="7.0992"><stop offset="0" style="stop-color:#182862"/><stop offset="1" style="stop-color:#0068B3"/></linearGradient><polygon style="fill:url(#SVGID_00000065754961241080824520000004514004865102615684_)" points="135.1,26.4 136.2,46.2 
		133.6,48.9 132.5,30.6 	"/><g><linearGradient id="SVGID_00000047048392539281724580000006383273699572379833_" gradientUnits="userSpaceOnUse" x1="138.9532" y1="56.0254" x2="240.8631" y2="66.5196"><stop offset="0" style="stop-color:#182862"/><stop offset="1" style="stop-color:#0068B3"/></linearGradient><path style="fill:url(#SVGID_00000047048392539281724580000006383273699572379833_)" d="M181.9,60.5c-5.5,1.6-12.5,2.4-21.1,2.4
			c-4.9,0-10.3-0.3-16.3-0.8l-4-0.4l-2.6,2.6l4,0.4c6,0.5,11.4,0.8,16.3,0.8c8.6,0,15.5-0.8,21.1-2.4c7.3-2.1,12.6-6.3,14.8-9.8l0,0
			C191.7,56.1,187.9,58.7,181.9,60.5z"/></g><linearGradient id="SVGID_00000166648212413719140130000018246649048831527055_" gradientUnits="userSpaceOnUse" x1="16.815" y1="48.6655" x2="14.3664" y2="38.1715"><stop offset="0" style="stop-color:#182862"/><stop offset="1" style="stop-color:#0068B3"/></linearGradient><polygon style="fill:url(#SVGID_00000166648212413719140130000018246649048831527055_)" points="17.5,44.4 14.8,47 15.7,51.1 
		18.3,48.4 	"/><linearGradient id="SVGID_00000098904370349999358420000000805141210790162104_" gradientUnits="userSpaceOnUse" x1="138.8902" y1="62.0153" x2="130.0286" y2="19.2615"><stop offset="0" style="stop-color:#182862"/><stop offset="1" style="stop-color:#0068B3"/></linearGradient><polygon style="fill:url(#SVGID_00000098904370349999358420000000805141210790162104_)" points="140.5,61.7 137.8,64.4 134.5,49 
		137.2,46.3 	"/><linearGradient id="SVGID_00000177444214063268857040000001972188245372797089_" gradientUnits="userSpaceOnUse" x1="107.2245" y1="66.6299" x2="107.2245" y2="3.3438"><stop offset="0" style="stop-color:#324E9E"/><stop offset="1" style="stop-color:#1E6EB6"/></linearGradient><path style="fill:url(#SVGID_00000177444214063268857040000001972188245372797089_)" d="M71,3.3l4.6,22.4l10.7-0.1
		c-0.4,0.6-0.8,1.2-1.1,1.8c-2.1,3.9-2.4,8.4-0.9,12.4c1.5,4,4.8,7.1,8.9,8.6c1.9,0.7,3.9,1,5.9,1c1.7,0,3.5-0.3,5.2-0.8l4.5,10.7
		h3.6c7.2,0,12.6-1.1,16.5-3.2c4-2.3,6.3-5.8,6.5-10.1c0.1-1.4,0.2-3.4,0.3-5.9c0.3-5.7,0.6-11.1,0.8-15.3l4-0.1l2.7-18.5L71,3.3z"/><linearGradient id="SVGID_00000091705920980747019970000010481116120661872003_" gradientUnits="userSpaceOnUse" x1="43.4196" y1="66.6298" x2="43.4196" y2="3.3438"><stop offset="0" style="stop-color:#324E9E"/><stop offset="1" style="stop-color:#1E6EB6"/></linearGradient><path style="fill:url(#SVGID_00000091705920980747019970000010481116120661872003_)" d="M74.8,43.5c-0.2,0-0.5,0-0.7,0.1l0.1-5.8
		l0.9-0.1l4.6-15.4L78,22.4l1.6-13.1l-25,1.2l0.1-3.5L28.6,6.9l1.4,4.9L5.3,13l7.4,20.4l0.3,0l4.5,10.9l0,0l0.8,4.1
		c-0.4,0-0.7,0.1-1.1,0.1l-7.6,0.5l7.4,17.8l4-0.3c9.1-0.8,17.5-3.6,23.7-7.9l2.1-1.5l3.3,1.2c4.7,1.6,11.4,2.5,18.2,2.5
		c2.2,0,4.3-0.1,6.5-0.3l4.3-0.4l2.3-17.3L74.8,43.5z"/><linearGradient id="SVGID_00000107547318738675485050000000577703843072410539_" gradientUnits="userSpaceOnUse" x1="174.2475" y1="66.6299" x2="174.2475" y2="3.3442"><stop offset="0" style="stop-color:#324E9E"/><stop offset="1" style="stop-color:#1E6EB6"/></linearGradient><path style="fill:url(#SVGID_00000107547318738675485050000000577703843072410539_)" d="M202.3,31.4l1.5,0.1l9.6-18l-16.5-0.8
		l0.8-3.8l-23.9,1.5l0,1.1l-1.4-0.1l0.1-0.9l-23.4-5.1l0.2,4.9l-13.5-0.7l3.1,16.2l2,0.2l0,0.9l-5.8-0.5l1.1,19.8l1,0.1l3.3,15.4
		l4,0.4c6,0.5,11.4,0.8,16.3,0.8c8.6,0,15.5-0.8,21.1-2.4c7.3-2.1,11.3-5.5,13.5-9.1l8,0.7l6.1-19l-7.6-0.7L202.3,31.4z"/><g><path class="st28" d="M137.1,11.5L77.8,9.1l2.3,11.2l40.1-0.5c0,5.7,0,18,0,22.9c0,0.7-0.5,1.5-1.7,1.5c-1.8,0-10.1,0-10.1,0
			l4.1,9.8c13.5,0,17.4-4,17.6-8.1c0.3-5,1.1-19.8,1.3-26.3l4.5-0.1L137.1,11.5z"/><path class="st28" d="M111.1,29.6c-2-5.2-8.4-7.6-14.4-5.3c-6,2.3-9.2,8.3-7.2,13.6c2,5.2,8.4,7.6,14.4,5.3
			C109.8,40.9,113.1,34.8,111.1,29.6z M101.1,37.6c-3.3,0-5.9-2.5-5.9-5.6c0-2.9,2.6-5.4,6-5.4c0.4,0,0.7,0,1.1,0.1
			c-1.8,0.2-3.3,1.5-3.3,3.2c0,1.8,1.6,3.2,3.6,3.2c2,0,3.6-1.4,3.6-3.2c0-0.3,0-0.6-0.1-0.8c0.6,0.9,1,1.9,1,3
			C107,35.1,104.4,37.6,101.1,37.6z"/></g><path class="st28" d="M60.2,49.3l8.4-0.7l0.3-14.7l-44.5,3.9l20.1-3.5l-0.3-2.9l-7,0.8L37,31.2l6.3-0.5l-0.2-2.6l-6.3,0.5l-0.1-1.1
		l6.9-0.6l0.1,1.1c0.5,0,0.9-0.1,1.4-0.2l0.2,2.1l8.4-0.7l0.2,1.8l-2.4,0.2l-0.1-0.9l-6,0.5l0.3,4l25.2-2.3l1.2-4.1L65.8,29l0.1,0.9
		l-2.1,0.2l-0.2-1.8l7.4-0.6l0.5-2.7l-8.1,0.7l-0.1-1.2l6.7-0.6L70,23l2.4-0.2l0.9-7.6l-24.4,1.2l0.1-3.8l-13.2-0.1l1.3,4.5
		l-24.2,1.2l3.4,9.6l3-0.3l0.4,1.6l6.9-0.6l0.1,1.1L20.6,30l0.7,2.6l5.8-0.5l0.1,1.2l-8,0.9l1.7,4l0.9-0.2l2.9,14.3l9-0.8
		c-5.3,1.1-11.9,2.1-16,2.4l3,7.1c9.5-0.8,16.6-3.8,21.1-6.9l-0.3-3.3L51.7,50l0.3,3.2c4.8,1.7,13.6,2.7,22.4,2l0.8-6.2
		C71.5,49.3,65.4,49.4,60.2,49.3z M53.4,26.5l-6.6,0.6c0.8-0.4,1.5-0.8,2.2-1.4l4.2-0.4L53.4,26.5z M61.4,22.1l-9.4,0.8
		c0.5-0.7,0.9-1.3,1.1-1.8l7.9-0.7L61.4,22.1z M46.8,21.6c-0.3,1-1.3,2.4-3.3,3.1l-0.1-1.1l-16.2,1.4l0.1-1.8L46.8,21.6z M57.4,42.7
		l-22.9,2l-0.1-1.1l22.9-2L57.4,42.7z M57.7,45.2l0.1,1.2l-22.9,2l-0.1-1.2L57.7,45.2z M57,37.9l0.1,1.1l-22.9,2l-0.1-1.1L57,37.9z"/><g><path class="st28" d="M143.5,20.8l11.7,1l0.1,1.3l-9.1-0.8l0.5,9.6l48.1,4.3l3.4-9.3l-9.7-0.8l0.3-1.3l12,1l3.9-7.3l-14.3-0.7
			l0.6-3l-11.7,0.7l0,1.7l-13.1-0.7l0.3-1.9l-11.5-2.5l0.1,3.8l-12.5-0.6L143.5,20.8z M174.5,28.5l-0.2,2.1l-5.7-0.5l0.2-2.1
			L174.5,28.5z M155.9,26.9l4.8,0.4l-0.2,2.1l-4.8-0.4L155.9,26.9z M187.2,31.8l-4.8-0.4l0.2-2.1l4.8,0.4L187.2,31.8z M179.1,23.9
			l0,1.3L164.9,24l0.2-1.3L179.1,23.9z"/><path class="st28" d="M141.4,41.2l7.1,0.6l-0.4,4.7c2.6,0.2,5.5,0.2,8.4-0.1c1.1,0.8,2.4,1.8,3.4,2.7c-5-0.1-10.6-0.5-16.8-1.1
			l1.8,8.5c30.2,2.6,44.6-1.7,47-11l7.5,0.7l2.7-8.3l-61.3-5.5L141.4,41.2z M172.2,48.8c-0.7-0.7-1.7-1.5-2.8-2.3l9,0.8
			C176.8,48,174.7,48.5,172.2,48.8z M188.7,43.5l-6.4-0.6l-8-0.7c0.9-0.4,1.6-0.8,2.3-1.2l12.3,1.1L188.7,43.5z M163.1,39.8
			c-3.2,0.9-7,1.5-11,1.5l0.2-2.4L163.1,39.8z"/></g><g><path class="st29" d="M128.8,47.1c-0.1,1.2-0.4,2.4-1.3,3.5c1.8-1.4,2.5-3.1,2.6-4.8c0.2-4.7,1-19.3,1.3-26.3l-1.3,1.3
			C129.9,27.4,129.1,42.1,128.8,47.1z"/><polygon class="st29" points="78.1,10.5 135.8,12.9 134.8,19.5 135.9,19.5 137.1,11.5 77.8,9.1 		"/><path class="st29" d="M118.9,44.1c-0.1,0-0.2,0-0.3,0c-1.8,0-10.1,0-10.1,0l0.6,1.3c2.6,0,7,0,8.2,0
			C118.3,45.5,118.8,44.8,118.9,44.1z"/><path class="st29" d="M105.4,31.8c-0.2-0.5-0.4-1-0.7-1.4c0.1,0.3,0.1,0.6,0.1,0.8c0,0.5-0.1,1-0.4,1.4
			C104.9,32.4,105.2,32.1,105.4,31.8z"/><path class="st29" d="M100.9,28c-0.4-0.1-0.7-0.1-1.1-0.1c0,0-0.1,0-0.1,0c-0.2,0.2-0.3,0.4-0.4,0.6
			C99.8,28.2,100.3,28.1,100.9,28z"/><path class="st29" d="M99.7,38.9c2.1,0,3.9-1,5-2.5c-1,0.7-2.3,1.2-3.6,1.2c-3.3,0-5.9-2.5-5.9-5.6c0-1.1,0.4-2.1,1-2.9
			c-1.4,1-2.3,2.5-2.3,4.2C93.8,36.5,96.5,38.9,99.7,38.9z"/><path class="st29" d="M109.8,30.9c1.3,3.4,0.4,7.1-2.1,9.9c3.4-2.9,4.9-7.3,3.4-11.3c-2-5.2-8.4-7.6-14.4-5.3
			c-2.1,0.8-3.9,2.1-5.2,3.6c1.1-0.9,2.4-1.7,3.9-2.3C101.3,23.4,107.8,25.7,109.8,30.9z"/></g><polyline class="st29" points="119.7,43.8 118.4,45.1 118.5,43.9 119.7,43.8 	"/><polygon class="st29" points="100.9,28 102.2,26.7 101.4,26.7 100.5,27 99.3,27.7 99.4,28 99.9,28 100.6,28 	"/><polyline class="st29" points="106,29 104.7,30.4 104.9,30.9 105.5,32.6 106.3,31.4 106.4,29.7 106.2,29.3 106,29 	"/><polyline class="st29" points="96.7,28.4 95.3,29.8 96.8,29.8 96.7,28.4 	"/><polygon class="st29" points="105.5,35.8 103.9,37.3 104.4,36.3 	"/><g><polygon class="st29" points="50,31.6 50,32.5 52.5,32.3 53.8,31 51.3,31.2 51.3,30.3 45.3,30.8 45.4,32 		"/><polygon class="st29" points="44.1,31.3 37,31.2 35.7,32.5 35.8,33.4 42.8,32.6 43,34.5 44.4,34.2 		"/><polygon class="st29" points="57.4,42.7 34.4,43.5 33.1,44.9 33.2,46 56.1,44 		"/><polygon class="st29" points="43.1,28.1 36.7,27.5 35.4,28.8 35.5,29.9 41.8,29.4 41.9,30.8 43.3,30.7 		"/><polygon class="st29" points="55.8,40.3 57.1,39 34.1,39.9 32.8,41.2 32.9,42.3 		"/><path class="st29" d="M60.2,49.3l-1.3,1.3c5.3,0.1,11.4,0,15.1-0.3l-0.7,5c0.4,0,0.8-0.1,1.2-0.1l0.8-6.2c-2.1,0.2-5,0.3-8,0.3
			L60.2,49.3z"/><polygon class="st29" points="57.8,46.4 34.7,47.2 33.4,48.5 33.5,49.7 56.4,47.7 		"/><path class="st29" d="M23.4,53.7l-0.1-0.3c-2.1,0.3-4.1,0.5-5.7,0.6l0.5,1.2c4.1-0.4,9.6-1.3,14.2-2.2L23.4,53.7z"/><polygon class="st29" points="46.8,27.1 45.5,28.4 52.1,27.8 53.4,26.5 		"/><polygon class="st29" points="27.2,33.3 19.2,34.2 19.7,35.3 25.8,34.6 		"/><path class="st29" d="M42.2,26c1.4-0.5,2.3-1.3,2.8-2.1c-0.4,0.3-0.9,0.5-1.5,0.7l-0.1-1.1l-16.2,1.4l0.1-1.8L26,24.6l-0.1,1.8
			L42.1,25L42.2,26z"/><path class="st29" d="M40.3,55.1c0.5-0.3,0.9-0.6,1.4-0.9l-0.3-3.3L40,52.2L40.3,55.1z"/><polygon class="st29" points="37.1,16.9 12.9,18.1 13.3,19.3 35.7,18.2 		"/><polygon class="st29" points="26.8,29.5 20.6,30 20.9,31.2 25.5,30.8 		"/><polygon class="st29" points="47.6,17.6 72,16.4 71.2,22.9 72.4,22.8 73.3,15.1 48.9,16.3 49,12.5 35.8,12.4 36.2,13.8 47.7,13.8 
					"/><path class="st29" d="M61.4,22.1l-9.4,0.8c0.5-0.3,1.1-1.3,1.1-1.8l-1.3,1.3l-1.1,1.8l9.4-0.8L61.4,22.1z"/><polygon class="st29" points="24.3,37.7 23,39 67.5,35.1 67.3,48.6 68.6,48.5 68.8,33.8 		"/><polygon class="st29" points="65.8,29 65.9,29.9 63.8,30.1 63.6,28.3 62.3,29.6 62.4,31.4 64.6,31.2 65.9,29.9 64.5,30.4 
			70.8,29.8 69.9,32.6 70.9,32.6 72.1,28.4 		"/><polygon class="st29" points="61.9,25.8 62,27 70.1,26.2 69.8,27.7 70.9,27.6 71.4,24.9 68.6,25.2 63.3,24.5 		"/><polygon class="st29" points="160.5,29.4 155.7,29 155.9,26.9 154.6,28.2 154.4,30.3 159.2,30.7 		"/><polygon class="st29" points="167.3,31.5 173,32 174.3,30.6 168.6,30.1 168.8,28 167.5,29.3 		"/><polygon class="st29" points="187.2,31.8 182.4,31.3 182.6,29.2 181.3,30.5 181.1,32.7 185.9,33.1 		"/><polygon class="st29" points="155.3,23.1 146.2,22.3 146.2,23.8 153.9,24.5 		"/><polygon class="st29" points="179.1,25.2 165.1,22.7 163.8,24 163.6,25.3 177.8,26.6 		"/><polygon class="st29" points="187.1,27.4 196.8,28.2 193.9,36.1 194.7,36.2 198.1,26.9 188.7,24.8 187.4,26.1 		"/><polygon class="st29" points="155,16.1 142.5,15.5 142.7,16.9 153.7,17.4 		"/><polygon class="st29" points="188.9,19.2 203.2,19.9 200.1,25.8 200.7,25.8 204.5,18.6 190.2,17.8 190.8,14.8 179.2,15.6 
			179.2,16.8 189.5,16.2 		"/><polygon class="st29" points="164.7,18 177.8,18.6 179.2,17.3 166.1,16.6 166.3,14.8 154.8,12.3 154.9,13.9 165,16.1 		"/><polygon class="st29" points="187.4,44.8 188.7,43.5 182.2,42.9 174.2,42.2 172.9,43.5 180.9,44.2 		"/><path class="st29" d="M163.1,39.8c-2,0.3-8.8,1.5-11,1.5l0.2-2.4l-1.3,1.3l-0.2,2.4c4,0,7.8-0.6,11-1.5L163.1,39.8z"/><path class="st29" d="M188.5,51.2c1.9-1,3.7-3.3,3.5-5.5l-1.3,1.3C190.3,48.5,189.6,49.9,188.5,51.2z"/><polygon class="st29" points="140.9,32.4 141,33.9 200.9,39.3 198.7,46.2 199.6,46.3 202.2,38 		"/><path class="st29" d="M159.9,49.2c-4.2-0.2-11.8-0.6-16.8-1.1l0.3,1.5c5.5,0.5,10.6,0.8,15.1,0.9L159.9,49.2z"/><path class="st29" d="M177.1,48.6l1.3-1.3c-0.8,0.2-5.4,1.4-6.3,1.5c-0.1-0.6-1.7-1.9-2.8-2.3l-1.3,1.3c1.1,0.8,2.1,1.6,2.8,2.3
			C173.4,49.8,175.5,49.3,177.1,48.6z"/></g><polyline class="st29" points="70,23 68.7,24.3 70.3,24.1 70,23 	"/><polygon class="st29" points="32.4,52.9 33.7,51.6 22.5,52.9 22.6,54.1 	"/><linearGradient id="SVGID_00000079457508659161596370000018418001804465088695_" gradientUnits="userSpaceOnUse" x1="107.2245" y1="66.6299" x2="107.2245" y2="3.3438"><stop offset="0" style="stop-color:#324E9E"/><stop offset="1" style="stop-color:#1E6EB6"/></linearGradient><path style="fill:url(#SVGID_00000079457508659161596370000018418001804465088695_)" d="M71,3.3l4.6,22.4l10.7-0.1
		c-0.4,0.6-0.8,1.2-1.1,1.8c-2.1,3.9-2.4,8.4-0.9,12.4c1.5,4,4.8,7.1,8.9,8.6c1.9,0.7,3.9,1,5.9,1c1.7,0,3.5-0.3,5.2-0.8l4.5,10.7
		h3.6c7.2,0,12.6-1.1,16.5-3.2c4-2.3,6.3-5.8,6.5-10.1c0.1-1.4,0.2-3.4,0.3-5.9c0.3-5.7,0.6-11.1,0.8-15.3l4-0.1l2.7-18.5L71,3.3z
		 M103.9,43.2c-6,2.3-12.4-0.1-14.4-5.3c-2-5.2,1.2-11.3,7.2-13.6c6-2.3,12.4,0.1,14.4,5.3C113.1,34.8,109.8,40.9,103.9,43.2z
		 M135.9,19.5l-4.5,0.1c-0.3,6.5-1.1,21.3-1.3,26.3c-0.2,4.1-4,8.1-17.6,8.1l-4.1-9.8c0,0,8.3,0,10.1,0c1.2,0,1.7-0.8,1.7-1.5V19.7
		l-40.1,0.5L77.8,9.1l59.3,2.4L135.9,19.5z"/><linearGradient id="SVGID_00000167354830971292245670000010448925950152062132_" gradientUnits="userSpaceOnUse" x1="101.0844" y1="66.6299" x2="101.0844" y2="3.3438"><stop offset="0" style="stop-color:#324E9E"/><stop offset="1" style="stop-color:#1E6EB6"/></linearGradient><path style="fill:url(#SVGID_00000167354830971292245670000010448925950152062132_)" d="M101.1,37.6c-3.3,0-5.9-2.5-5.9-5.6
		c0-2.9,2.6-5.4,6-5.4c0.4,0,0.7,0,1.1,0.1c-1.8,0.2-3.3,1.5-3.3,3.2c0,1.8,1.6,3.2,3.6,3.2c2,0,3.6-1.4,3.6-3.2
		c0-0.3,0-0.6-0.1-0.8c0.6,0.9,1,1.9,1,3C107,35.1,104.4,37.6,101.1,37.6z"/><g><linearGradient id="SVGID_00000126287535701999034790000004946160714833441682_" gradientUnits="userSpaceOnUse" x1="37.0351" y1="66.629" x2="37.0351" y2="3.3445"><stop offset="0" style="stop-color:#324E9E"/><stop offset="1" style="stop-color:#1E6EB6"/></linearGradient><path style="fill:url(#SVGID_00000126287535701999034790000004946160714833441682_)" d="M27.2,25.1l16.2-1.4l0.1,1.1
			c2-0.7,3-2.1,3.3-3.1l-19.5,1.7L27.2,25.1z"/><linearGradient id="SVGID_00000165934578013944363400000017886389998757718197_" gradientUnits="userSpaceOnUse" x1="56.6517" y1="66.6299" x2="56.6517" y2="3.344"><stop offset="0" style="stop-color:#324E9E"/><stop offset="1" style="stop-color:#1E6EB6"/></linearGradient><path style="fill:url(#SVGID_00000165934578013944363400000017886389998757718197_)" d="M53,21.1c-0.2,0.5-0.5,1.2-1.1,1.8
			l9.4-0.8l-0.4-1.7L53,21.1z"/><linearGradient id="SVGID_00000164514981169197350100000000982848046219478967_" gradientUnits="userSpaceOnUse" x1="50.1091" y1="66.6299" x2="50.1091" y2="3.344"><stop offset="0" style="stop-color:#324E9E"/><stop offset="1" style="stop-color:#1E6EB6"/></linearGradient><path style="fill:url(#SVGID_00000164514981169197350100000000982848046219478967_)" d="M53.4,26.5l-0.1-1.2l-4.2,0.4
			c-0.7,0.5-1.5,1-2.2,1.4L53.4,26.5z"/><linearGradient id="SVGID_00000115493988163237360590000016800946889021276847_" gradientUnits="userSpaceOnUse" x1="45.605" y1="66.6295" x2="45.605" y2="3.3444"><stop offset="0" style="stop-color:#324E9E"/><stop offset="1" style="stop-color:#1E6EB6"/></linearGradient><polygon style="fill:url(#SVGID_00000115493988163237360590000016800946889021276847_)" points="57.1,39 57,37.9 34.1,39.9 
			34.2,41 		"/><linearGradient id="SVGID_00000132796530932545417540000003387603211863984570_" gradientUnits="userSpaceOnUse" x1="46.2469" y1="66.6303" x2="46.2469" y2="3.343"><stop offset="0" style="stop-color:#324E9E"/><stop offset="1" style="stop-color:#1E6EB6"/></linearGradient><polygon style="fill:url(#SVGID_00000132796530932545417540000003387603211863984570_)" points="57.8,46.4 57.7,45.2 34.7,47.2 
			34.8,48.4 		"/><linearGradient id="SVGID_00000076561361442942245940000013247461572440471713_" gradientUnits="userSpaceOnUse" x1="45.9251" y1="66.6294" x2="45.9251" y2="3.3446"><stop offset="0" style="stop-color:#324E9E"/><stop offset="1" style="stop-color:#1E6EB6"/></linearGradient><polygon style="fill:url(#SVGID_00000076561361442942245940000013247461572440471713_)" points="57.4,42.7 57.3,41.5 34.4,43.5 
			34.5,44.7 		"/><linearGradient id="SVGID_00000109751499284925208890000005454321629677440676_" gradientUnits="userSpaceOnUse" x1="109.3131" y1="67.2051" x2="109.3131" y2="3.5691"><stop offset="0" style="stop-color:#324E9E"/><stop offset="1" style="stop-color:#1E6EB6"/></linearGradient><path style="fill:url(#SVGID_00000109751499284925208890000005454321629677440676_)" d="M202.3,31.4l1.5,0.1l9.6-18l-16.5-0.8
			l0.8-3.8l-23.9,1.5l0,1.1l-1.4-0.1l0.1-0.9l-23.4-5.1l0.2,4.9l-6.5-0.3l0.5-3.7L71,3.3l1.3,6.3l-17.8,0.9l0.1-3.5L28.6,6.9
			l1.4,4.9L5.3,13l7.4,20.4l0.3,0l4.5,10.9l0.9,4.1c-0.4,0-0.7,0.1-1.1,0.1l-7.6,0.5l7.4,17.8l4-0.3c9.1-0.8,17.5-3.6,23.7-7.9
			l2.1-1.5l3.3,1.2c4.7,1.6,11.4,2.5,18.2,2.5c2.2,0,4.3-0.1,6.5-0.3l4.3-0.4l2.3-17.3l-6.8,0.6c-0.2,0-0.5,0-0.7,0.1l0.1-5.8
			l0.9-0.1l3.6-11.9l7.8-0.1c-2.9,4.2-3.9,9.4-2.1,14.2c1.5,4,4.8,7.1,8.9,8.6c1.9,0.7,3.9,1,5.9,1c1.7,0,3.5-0.3,5.2-0.8l4.5,10.7
			h3.6c7.2,0,12.6-1.1,16.5-3.2c4-2.3,6.3-5.8,6.5-10.1c0.1-1.4,0.2-3.4,0.3-5.9c0,0,0-0.1,0-0.1l0.3,6.1l1,0.1l3.3,15.4l4,0.4
			c6,0.5,11.4,0.8,16.3,0.8c8.6,0,15.5-0.8,21.1-2.4c7.3-2.1,11.3-5.5,13.5-9.1l8,0.7l6.1-19l-7.6-0.7L202.3,31.4z M154.8,12.3
			l11.5,2.5l-0.3,1.9l13.1,0.7l0-1.7l11.7-0.7l-0.6,3l14.3,0.7l-3.9,7.3l-12-1l-0.3,1.3l9.7,0.8l-3.4,9.3l-48.1-4.3l-0.5-9.6
			l9.1,0.8l-0.1-1.3l-11.7-1l-1-5.3l12.5,0.6L154.8,12.3z M75.3,48.9l-0.8,6.2c-8.8,0.8-17.6-0.3-22.4-2L51.7,50l-10.4,0.9l0.3,3.3
			c-4.5,3.1-11.6,6.1-21.1,6.9l-3-7.1c4.2-0.3,10.7-1.3,16-2.4l-9,0.8l-2.9-14.3l-0.9,0.2l-1.7-4l8-0.9L27,32.1l-5.8,0.5L20.6,30
			l6.3-0.5l-0.1-1.1L19.8,29l-0.4-1.6l-3,0.3l-3.4-9.6l24.2-1.2l-1.3-4.5L49,12.5l-0.1,3.8l24.4-1.2l-0.9,7.6L70,23l-0.1,0.9
			l-6.7,0.6l0.1,1.2l8.1-0.7l-0.5,2.7l-7.4,0.6l0.2,1.8l2.1-0.2L65.8,29l6.3-0.6l-1.2,4.1l-25.2,2.3l-0.3-4l6-0.5l0.1,0.9l2.4-0.2
			l-0.2-1.8l-8.4,0.7L45,27.7c-0.5,0.1-0.9,0.2-1.4,0.3l-0.1-1.1l-6.9,0.6l0.1,1.1l6.3-0.5l0.2,2.6L37,31.2l0.1,0.9l7-0.8l0.3,2.9
			l-20.1,3.5l44.5-3.9l-0.3,14.7l-8.4,0.7C65.4,49.4,71.5,49.3,75.3,48.9z M89.4,37.9c-2-5.2,1.2-11.3,7.2-13.6
			c6-2.3,12.4,0.1,14.4,5.3c2,5.2-1.2,11.3-7.2,13.6C97.9,45.5,91.4,43.1,89.4,37.9z M112.6,53.9l-4.1-9.8c0,0,8.3,0,10.1,0
			c1.2,0,1.7-0.8,1.7-1.5c0-4.9,0-17.2,0-22.9l-40.1,0.5L77.8,9.1l59.3,2.4l-1.2,8l-4.5,0.1c-0.3,6.5-1.1,21.3-1.3,26.3
			C129.9,49.9,126.1,53.9,112.6,53.9z M202.2,38l-2.7,8.3l-7.5-0.7c-2.4,9.3-16.9,13.7-47,11l-1.8-8.5c6.2,0.5,11.8,0.9,16.8,1.1
			c-1-0.9-2.2-1.9-3.4-2.7c-2.9,0.3-5.8,0.3-8.4,0.1l0.4-4.7l-7.1-0.6l-0.5-8.8L202.2,38z"/><linearGradient id="SVGID_00000176762353592087463450000006669229867035465877_" gradientUnits="userSpaceOnUse" x1="171.549" y1="66.6303" x2="171.549" y2="3.3433"><stop offset="0" style="stop-color:#324E9E"/><stop offset="1" style="stop-color:#1E6EB6"/></linearGradient><polygon style="fill:url(#SVGID_00000176762353592087463450000006669229867035465877_)" points="168.8,28 168.6,30.1 174.3,30.6 
			174.5,28.5 		"/><linearGradient id="SVGID_00000030454481744765670220000011436214407608469937_" gradientUnits="userSpaceOnUse" x1="172.0297" y1="66.629" x2="172.0297" y2="3.3446"><stop offset="0" style="stop-color:#324E9E"/><stop offset="1" style="stop-color:#1E6EB6"/></linearGradient><polygon style="fill:url(#SVGID_00000030454481744765670220000011436214407608469937_)" points="165.1,22.7 164.9,24 179.1,25.2 
			179.1,23.9 		"/><linearGradient id="SVGID_00000033327923050268859210000013632535905475605692_" gradientUnits="userSpaceOnUse" x1="184.8821" y1="66.6294" x2="184.8821" y2="3.3444"><stop offset="0" style="stop-color:#324E9E"/><stop offset="1" style="stop-color:#1E6EB6"/></linearGradient><polygon style="fill:url(#SVGID_00000033327923050268859210000013632535905475605692_)" points="182.4,31.3 187.2,31.8 
			187.4,29.6 182.6,29.2 		"/><linearGradient id="SVGID_00000052084201972433838840000012216792929517139629_" gradientUnits="userSpaceOnUse" x1="181.5288" y1="66.6299" x2="181.5288" y2="3.3437"><stop offset="0" style="stop-color:#324E9E"/><stop offset="1" style="stop-color:#1E6EB6"/></linearGradient><path style="fill:url(#SVGID_00000052084201972433838840000012216792929517139629_)" d="M176.5,41c-0.7,0.4-1.4,0.8-2.3,1.2
			l8,0.7l6.4,0.6l0.1-1.4L176.5,41z"/><linearGradient id="SVGID_00000174584893328746768120000015020309426044119476_" gradientUnits="userSpaceOnUse" x1="158.2159" y1="66.6285" x2="158.2159" y2="3.3447"><stop offset="0" style="stop-color:#324E9E"/><stop offset="1" style="stop-color:#1E6EB6"/></linearGradient><polygon style="fill:url(#SVGID_00000174584893328746768120000015020309426044119476_)" points="160.7,27.3 155.9,26.9 155.7,29 
			160.5,29.4 		"/><linearGradient id="SVGID_00000018924440518319778880000008125658511806474124_" gradientUnits="userSpaceOnUse" x1="173.9431" y1="66.6301" x2="173.9431" y2="3.3435"><stop offset="0" style="stop-color:#324E9E"/><stop offset="1" style="stop-color:#1E6EB6"/></linearGradient><path style="fill:url(#SVGID_00000018924440518319778880000008125658511806474124_)" d="M178.5,47.3l-9-0.8
			c1.1,0.8,2.1,1.6,2.8,2.3C174.7,48.5,176.8,48,178.5,47.3z"/><linearGradient id="SVGID_00000155845164673915268610000003737321898671593866_" gradientUnits="userSpaceOnUse" x1="157.5998" y1="66.6297" x2="157.5998" y2="3.344"><stop offset="0" style="stop-color:#324E9E"/><stop offset="1" style="stop-color:#1E6EB6"/></linearGradient><path style="fill:url(#SVGID_00000155845164673915268610000003737321898671593866_)" d="M163.1,39.8l-10.7-0.9l-0.2,2.4
			C156.1,41.3,159.9,40.7,163.1,39.8z"/></g><g><path class="st46" d="M46.7,21.8c-0.3,1-1.3,2.1-3,2.8l-0.1-0.9l0-0.1l-0.1,0l-16.1,1.4l0.1-1.5L46.7,21.8 M46.8,21.6l-19.5,1.7
			l-0.1,1.8l16.2-1.4l0.1,1.1C45.6,24,46.6,22.7,46.8,21.6L46.8,21.6z"/><path class="st46" d="M60.8,20.5l0.4,1.4l-9,0.8c0.4-0.6,0.7-1.1,0.9-1.6L60.8,20.5 M60.9,20.4L53,21.1c-0.2,0.5-0.5,1.2-1.1,1.8
			l9.4-0.8L60.9,20.4L60.9,20.4z"/><path class="st46" d="M53.2,25.5l0.1,0.9l-5.8,0.5c0.6-0.3,1.1-0.7,1.6-1L53.2,25.5 M53.3,25.3l-4.2,0.4c-0.7,0.5-1.5,1-2.2,1.4
			l6.6-0.6L53.3,25.3L53.3,25.3z"/><path class="st46" d="M56.9,38l0.1,0.9l-22.7,2L34.2,40L56.9,38 M57,37.9l-22.9,2l0.1,1.1l22.9-2L57,37.9L57,37.9z"/><path class="st46" d="M57.5,45.3l0.1,0.9l-22.7,2l-0.1-0.9L57.5,45.3 M57.7,45.2l-22.9,2l0.1,1.2l22.9-2L57.7,45.2L57.7,45.2z"/><path class="st46" d="M57.2,41.7l0.1,0.9l-22.7,2l-0.1-0.9L57.2,41.7 M57.3,41.5l-22.9,2l0.1,1.1l22.9-2L57.3,41.5L57.3,41.5z"/><path class="st46" d="M71.2,3.5l72,3l-0.5,3.5l0,0.1l0.1,0l6.5,0.3l0.1,0l0-0.1l-0.2-4.7l23.1,5l-0.1,0.8l0,0.1l0.1,0l1.4,0.1
			l0.1,0l0-0.1l0-1l23.6-1.5l-0.8,3.6l0,0.2l0.2,0l16.3,0.8l-9.4,17.8l-1.4-0.1l-0.1,0l0,0.1l-0.4,1l-0.1,0.2l0.2,0l7.5,0.7l-6,18.7
			l-7.9-0.7l-0.1,0l0,0.1c-2.6,4.1-7.1,7.1-13.5,9c-5.6,1.6-12.4,2.4-21,2.4c-4.9,0-10.3-0.3-16.3-0.8l-3.9-0.3l-3.3-15.3l0-0.1
			l-0.1,0l-0.8-0.1l-0.3-6l-0.3,0l0,0.1l0,0.1c-0.1,2.4-0.2,4.5-0.3,5.9c-0.2,4.2-2.5,7.7-6.5,9.9c-3.8,2.2-9.2,3.2-16.4,3.2H109
			l-4.4-10.6l0-0.1l-0.1,0c-1.7,0.5-3.5,0.8-5.2,0.8c-2,0-4-0.3-5.9-1c-4.1-1.5-7.4-4.6-8.9-8.6c-1.7-4.6-1-9.8,2-14.1l0.2-0.2
			l-0.3,0l-7.8,0.1l-0.1,0l0,0.1L75,37.5l-0.8,0.1l-0.1,0l0,0.1L74,43.5l0,0.1l0.1,0c0.2,0,0.5,0,0.7-0.1l6.6-0.6l-2.3,17l-4.2,0.4
			c-2.1,0.2-4.3,0.3-6.5,0.3c-6.9,0-13.6-0.9-18.2-2.5l-3.3-1.2l-0.1,0l-0.1,0l-2.1,1.5c-6.2,4.3-14.6,7-23.6,7.8l-3.9,0.3L9.9,49.2
			l7.4-0.5c0.3,0,0.7-0.1,1.1-0.1l0.1,0l0-0.1l-0.9-4.1l0,0l0,0l-4.5-10.9l0-0.1l-0.1,0l-0.2,0L5.4,13.1L30,11.9l0.2,0l0-0.2
			l-1.3-4.7l25.8,0.1l-0.1,3.4l0,0.1l0.1,0l17.8-0.9l0.2,0l0-0.2L71.2,3.5 M80,20.4l0.1,0l40-0.5v22.8c0,0.7-0.5,1.4-1.5,1.4h-10.1
			h-0.2l0.1,0.2l4.1,9.8l0,0.1h0.1c14.3,0,17.5-4.5,17.7-8.2c0.1-1.4,0.2-3.4,0.3-5.9c0.3-6.6,0.8-15.5,1-20.3l4.4-0.1l0.1,0l0-0.1
			l1.2-8l0-0.1l-0.1,0L77.8,9l-0.2,0l0,0.2L80,20.3L80,20.4 M154.8,15.9l-12.4-0.6l-0.2,0l0,0.2l1,5.3l0,0.1l0.1,0l11.6,1l0,1
			l-8.9-0.8l-0.2,0l0,0.2l0.5,9.6l0,0.1l0.1,0l48.1,4.3l0.1,0l0-0.1l3.4-9.3l0.1-0.2l-0.2,0l-9.5-0.8l0.2-1l11.8,1l0.1,0l0-0.1
			l3.9-7.3l0.1-0.2l-0.2,0l-14.2-0.7l0.6-2.8l0-0.2l-0.2,0l-11.7,0.7l-0.1,0l0,0.1l0,1.6l-12.8-0.6l0.3-1.7l0-0.1l-0.1,0l-11.5-2.5
			l-0.2,0l0,0.2L154.8,15.9 M36.9,16.8l-24,1.2l-0.2,0l0.1,0.2l3.4,9.6l0,0.1l0.1,0l2.9-0.3l0.4,1.5l0,0.1l0.1,0l6.8-0.6l0.1,0.9
			l-6.1,0.5l-0.2,0l0,0.2l0.7,2.6l0,0.1l0.1,0l5.7-0.5l0.1,0.9l-7.8,0.9l-0.2,0l0.1,0.2l1.7,4l0,0.1l0.1,0l0.8-0.1l2.9,14.1l0,0.1
			l0.1,0l6.5-0.6c-5,0.9-10.2,1.7-13.6,1.9l-0.2,0l0.1,0.2l3,7.1l0,0.1l0.1,0c11-1,18-4.8,21.1-6.9l0.1,0l0-0.1L41.5,51l10.1-0.9
			l0.3,3.1l0,0.1l0.1,0c3.9,1.4,10.3,2.2,16.5,2.2c2,0,4-0.1,6-0.3l0.1,0l0-0.1l0.8-6.2l0-0.2l-0.2,0c-2.7,0.2-6.7,0.4-11,0.4
			c-0.5,0-1,0-1.5,0l5.8-0.5l0.1,0l0-0.1l0.3-14.7l0-0.1l-0.1,0l-41.4,3.6l17-2.9l0.1,0l0-0.1l-0.3-2.9l0-0.1l-0.1,0L37.2,32
			l-0.1-0.6l6.1-0.5l0.1,0l0-0.1l-0.2-2.6l0-0.1l-0.1,0l-6.1,0.5l-0.1-0.9l6.6-0.6l0.1,1l0,0.1l0.1,0c0.4,0,0.8-0.1,1.2-0.2l0.2,1.9
			l0,0.1l0.1,0l8.3-0.7l0.1,1.6L51.5,31l-0.1-0.7l0-0.1l-0.1,0l-6,0.5l-0.1,0l0,0.1l0.3,4l0,0.1l0.1,0l25.2-2.3l0.1,0l0-0.1l1.2-4.1
			l0.1-0.2l-0.2,0l-6.3,0.6l-0.1,0l0,0.1l0.1,0.7l-1.9,0.2l-0.1-1.6l7.2-0.6l0.1,0l0-0.1l0.5-2.7l0-0.2l-0.2,0l-7.9,0.7l-0.1-0.9
			L70,24l0.1,0l0-0.1l0.1-0.8l2.3-0.2l0.1,0l0-0.1l0.9-7.6l0-0.2l-0.2,0L49,16.2l0.1-3.7l0-0.1l-0.1,0l-13.2-0.1l-0.2,0l0,0.2
			L36.9,16.8 M99.2,44.2c1.6,0,3.2-0.3,4.7-0.9c2.9-1.1,5.3-3.2,6.7-5.7c1.4-2.6,1.6-5.4,0.6-8c-1.4-3.8-5.3-6.2-9.9-6.2
			c-1.6,0-3.2,0.3-4.7,0.9c-2.9,1.1-5.3,3.2-6.7,5.7c-1.4,2.6-1.6,5.4-0.6,8C90.8,41.7,94.6,44.2,99.2,44.2 M148.4,41.9l-0.4,4.6
			l0,0.1l0.1,0c1.1,0.1,2.4,0.1,3.6,0.1c1.5,0,3.1-0.1,4.8-0.2c1.2,0.9,2.2,1.7,3,2.4c-4.5-0.1-9.9-0.5-16.4-1.1l-0.2,0l0,0.2
			l1.8,8.5l0,0.1l0.1,0c5.8,0.5,11.1,0.8,15.8,0.8c18.7,0,29.3-4,31.4-11.8l7.4,0.7l0.1,0l0-0.1l2.7-8.3l0.1-0.2l-0.2,0l-61.3-5.5
			l-0.2,0l0,0.2l0.5,8.8l0,0.1l0.1,0L148.4,41.9 M71,3.3l1.3,6.3l-17.8,0.9l0.1-3.5L28.6,6.9l1.4,4.9L5.3,13l7.4,20.4l0.3,0
			l4.5,10.9l0.9,4.1c-0.4,0-0.7,0.1-1.1,0.1l-7.6,0.5l7.4,17.8l4-0.3c9.1-0.8,17.5-3.6,23.7-7.9l2.1-1.5l3.3,1.2
			c4.7,1.6,11.4,2.5,18.2,2.5c2.2,0,4.3-0.1,6.5-0.3l4.3-0.4l2.3-17.3l-6.8,0.6c-0.2,0-0.5,0-0.7,0.1l0.1-5.8l0.9-0.1l3.6-11.9
			l7.8-0.1c-2.9,4.2-3.9,9.4-2.1,14.2c1.5,4,4.8,7.1,8.9,8.6c1.9,0.7,3.9,1,5.9,1c1.7,0,3.5-0.3,5.2-0.8l4.5,10.7h3.6
			c7.2,0,12.6-1.1,16.5-3.2c4-2.3,6.3-5.8,6.5-10.1c0.1-1.4,0.2-3.4,0.3-5.9c0,0,0-0.1,0-0.1l0.3,6.1l1,0.1l3.3,15.4l4,0.4
			c6,0.5,11.4,0.8,16.3,0.8c8.6,0,15.5-0.8,21.1-2.4c7.3-2.1,11.3-5.5,13.5-9.1l8,0.7l6.1-19l-7.6-0.7l0.4-1l1.5,0.1l9.6-18
			l-16.5-0.8l0.8-3.8l-23.9,1.5l0,1.1l-1.4-0.1l0.1-0.9l-23.4-5.1l0.2,4.9l-6.5-0.3l0.5-3.7L71,3.3L71,3.3z M80.1,20.2L77.8,9.1
			l59.3,2.4l-1.2,8l-4.5,0.1c-0.3,6.5-1.1,21.3-1.3,26.3c-0.2,4.1-4,8.1-17.6,8.1l-4.1-9.8c0,0,8.3,0,10.1,0c1.2,0,1.7-0.8,1.7-1.5
			c0-4.9,0-17.2,0-22.9L80.1,20.2L80.1,20.2z M155,16.1l-0.1-3.8l11.5,2.5l-0.3,1.9l13.1,0.7l0-1.7l11.7-0.7l-0.6,3l14.3,0.7
			l-3.9,7.3l-12-1l-0.3,1.3l9.7,0.8l-3.4,9.3l-48.1-4.3l-0.5-9.6l9.1,0.8l-0.1-1.3l-11.7-1l-1-5.3L155,16.1L155,16.1z M16.3,27.7
			l-3.4-9.6l24.2-1.2l-1.3-4.5L49,12.5l-0.1,3.8l24.4-1.2l-0.9,7.6L70,23l-0.1,0.9l-6.7,0.6l0.1,1.2l8.1-0.7l-0.5,2.7l-7.4,0.6
			l0.2,1.8l2.1-0.2L65.8,29l6.3-0.6l-1.2,4.1l-25.2,2.3l-0.3-4l6-0.5l0.1,0.9l2.4-0.2l-0.2-1.8l-8.4,0.7L45,27.7
			c-0.5,0.1-0.9,0.2-1.4,0.3l-0.1-1.1l-6.9,0.6l0.1,1.1l6.3-0.5l0.2,2.6L37,31.2l0.1,0.9l7-0.8l0.3,2.9l-20.1,3.5l44.5-3.9
			l-0.3,14.7l-8.4,0.7c1.3,0,2.7,0,4.1,0c4.1,0,8.2-0.1,11-0.4l-0.8,6.2c-2,0.2-4,0.3-5.9,0.3c-6.7,0-12.8-0.9-16.4-2.2L51.7,50
			l-10.4,0.9l0.3,3.3c-4.5,3.1-11.6,6.1-21.1,6.9l-3-7.1c4.2-0.3,10.7-1.3,16-2.4l-9,0.8l-2.9-14.3l-0.9,0.2l-1.7-4l8-0.9L27,32.1
			l-5.8,0.5L20.6,30l6.3-0.5l-0.1-1.1L19.8,29l-0.4-1.6L16.3,27.7L16.3,27.7z M99.2,44c-4.4,0-8.3-2.3-9.8-6.2
			c-2-5.2,1.2-11.3,7.2-13.6c1.5-0.6,3.1-0.9,4.6-0.9c4.4,0,8.3,2.3,9.8,6.2c2,5.2-1.2,11.3-7.2,13.6C102.3,43.8,100.7,44,99.2,44
			L99.2,44z M151.7,46.7c-1.2,0-2.5,0-3.6-0.1l0.4-4.7l-7.1-0.6l-0.5-8.8l61.3,5.5l-2.7,8.3l-7.5-0.7c-1.9,7.5-11.7,11.8-31.3,11.8
			c-4.7,0-9.9-0.2-15.8-0.8l-1.8-8.5c6.2,0.5,11.8,0.9,16.8,1.1c-1-0.9-2.2-1.9-3.4-2.7C154.9,46.6,153.3,46.7,151.7,46.7
			L151.7,46.7z"/><path class="st46" d="M168.9,28.1l5.4,0.5l-0.2,1.9l-5.4-0.5L168.9,28.1 M168.8,28l-0.2,2.1l5.7,0.5l0.2-2.1L168.8,28L168.8,28z"/><path class="st46" d="M165.2,22.8L179,24l0,1l-13.9-1.2L165.2,22.8 M165.1,22.7l-0.2,1.3l14.2,1.2l0-1.3L165.1,22.7L165.1,22.7z"/><path class="st46" d="M182.7,29.3l4.5,0.4l-0.2,1.9l-4.5-0.4L182.7,29.3 M182.6,29.2l-0.2,2.1l4.8,0.4l0.2-2.1L182.6,29.2
			L182.6,29.2z"/><path class="st46" d="M176.6,41.1l12.1,1.1l-0.1,1.2l-6.3-0.6l-7.5-0.7C175.4,41.8,176,41.4,176.6,41.1 M176.5,41
			c-0.7,0.4-1.4,0.8-2.3,1.2l8,0.7l6.4,0.6l0.1-1.4L176.5,41L176.5,41z"/><path class="st46" d="M156,27l4.5,0.4l-0.2,1.9l-4.5-0.4L156,27 M155.9,26.9l-0.2,2.1l4.8,0.4l0.2-2.1L155.9,26.9L155.9,26.9z"/><path class="st46" d="M169.9,46.7l8,0.7c-1.5,0.6-3.4,1-5.7,1.3C171.7,48.1,170.8,47.4,169.9,46.7 M169.4,46.5
			c1.1,0.8,2.1,1.6,2.8,2.3c2.5-0.3,4.6-0.8,6.3-1.5L169.4,46.5L169.4,46.5z"/><path class="st46" d="M152.5,39l9.9,0.9c-3.2,0.8-6.6,1.3-10.1,1.3L152.5,39 M152.3,38.8l-0.2,2.4c4,0,7.8-0.6,11-1.5L152.3,38.8
			L152.3,38.8z"/></g></g></svg>