<svg xmlns="http://www.w3.org/2000/svg" xmlns:xlink="http://www.w3.org/1999/xlink" width="74.767" height="74.767" viewBox="0 0 74.767 74.767"><defs><clipPath id="a"><rect width="74.767" height="74.767" fill="none"/></clipPath></defs><g clip-path="url(#a)"><path d="M0,37.383A37.383,37.383,0,1,1,37.384,74.766,37.384,37.384,0,0,1,0,37.383" transform="translate(0 0.001)" fill="red"/><path d="M115.629,119.086c-.17-2.787-.24-5.894-1.639-8.39-1.038-1.852-2.375-2.776-5.675-3.054a254.238,254.238,0,0,0-34.482-.1c-2.742.141-5.748.513-7.226,3.15-1.376,2.456-1.5,5.567-1.634,8.317A120.126,120.126,0,0,0,64.89,131.8c.194,3.315.731,7.064,3.691,9.1,2.755,1.891,6.438,1.534,9.613,1.583,9.212.14,18.451.456,27.651-.195a23.444,23.444,0,0,0,4.649-.568,6.592,6.592,0,0,0,1.52-.82c3.028-2.079,3.3-5.451,3.6-8.849a86.679,86.679,0,0,0,.022-12.875c0-.028,0-.057-.005-.085" transform="translate(-52.924 -87.46)" fill="#fff"/><path d="M176.907,162.88v15.261l13.221-7.569Z" transform="translate(-144.592 -133.127)" fill="red"/></g></svg>